<svg xmlns="http://www.w3.org/2000/svg" viewBox="0 0 24 24" role="img" aria-label="Google">
  <path fill="#4285F4" d="M23.49 12.27c0-.79-.07-1.55-.2-2.27H12v4.51h6.47a5.53 5.53 0 0 1-2.4 3.53v2.93h3.89c2.28-2.1 3.53-5.19 3.53-8.7Z"/>
  <path fill="#34A853" d="M12 24c3.24 0 5.95-1.07 7.93-2.91l-3.89-3.03c-1.07.72-2.44 1.15-4.04 1.15-3.13 0-5.78-2.11-6.73-4.96H1.24v3.11A12 12 0 0 0 12 24Z"/>
  <path fill="#FBBC05" d="M5.27 14.25A7.23 7.23 0 0 1 4.9 12c0-.78.13-1.54.37-2.25V6.64H1.24A12 12 0 0 0 0 12c0 1.93.46 3.76 1.24 5.36l4.03-3.11Z"/>
  <path fill="#EA4335" d="M12 4.77c1.76 0 3.34.61 4.58 1.8l3.43-3.43A11.5 11.5 0 0 0 12 0 12 12 0 0 0 1.24 6.64l4.03 3.11C6.22 6.88 8.87 4.77 12 4.77Z"/>
</svg>
