<svg xmlns="http://www.w3.org/2000/svg" style="display:none">
  <symbol id="phone" viewBox="0 0 24 24">
    <path d="M6.6 10.8c1.4 2.8 3.8 5.2 6.6 6.6l2.2-2.2c.3-.3.7-.4 1-.2 1.1.4 2.3.6 3.5.6.6 0 1 .4 1 1V20c0 .6-.4 1-1 1C10.5 21 3 13.5 3 4c0-.6.4-1 1-1h3.5c.6 0 1 .4 1 1 0 1.2.2 2.4.6 3.5.1.3 0 .7-.2 1z"/>
  </symbol>
  <symbol id="pin" viewBox="0 0 24 24">
    <path d="M12 22s7-7.2 7-12.5A7 7 0 0 0 5 9.5C5 14.8 12 22 12 22z"/>
    <circle cx="12" cy="9.5" r="2.3"/>
  </symbol>
  <symbol id="clock" viewBox="0 0 24 24">
    <circle cx="12" cy="12" r="9"/>
    <path d="M12 7v5l3.5 2"/>
  </symbol>
  <symbol id="mail" viewBox="0 0 24 24">
    <rect x="3" y="5" width="18" height="14" rx="2"/>
    <path d="M3.5 6.5 12 13l8.5-6.5"/>
  </symbol>
  <symbol id="steering" viewBox="0 0 24 24">
    <circle cx="12" cy="12" r="9"/>
    <circle cx="12" cy="12" r="2"/>
    <path d="M12 5v5M6.5 15.5 10 13M17.5 15.5 14 13"/>
  </symbol>
  <symbol id="car" viewBox="0 0 24 24">
    <path d="M4 16v-3.5l2-4.5h12l2 4.5V16"/>
    <path d="M4 16h16"/>
    <circle cx="7.5" cy="16.5" r="1.5"/>
    <circle cx="16.5" cy="16.5" r="1.5"/>
  </symbol>
  <symbol id="book" viewBox="0 0 24 24">
    <path d="M12 6c-1.8-1.2-4-1.5-6-1v13c2 0 4.2.3 6 1.5 1.8-1.2 4-1.5 6-1.5V5c-2-.5-4.2-.2-6 1z"/>
    <path d="M12 6v13"/>
  </symbol>
  <symbol id="star" viewBox="0 0 24 24">
    <path d="M12 3l2.6 5.6 6.1.6-4.6 4.2 1.3 6-5.4-3.1-5.4 3.1 1.3-6-4.6-4.2 6.1-.6z"/>
  </symbol>
  <symbol id="shield" viewBox="0 0 24 24">
    <path d="M12 3l7 3v6c0 5-3 8-7 9-4-1-7-4-7-9V6z"/>
  </symbol>
  <symbol id="thumbsup" viewBox="0 0 24 24">
    <path d="M7 11v9H4v-9z"/>
    <path d="M7 11l3-7c.4-.9 1.7-.9 2.2 0 .3.6.4 1.3.2 2l-1 3h5.4c1 0 1.7 1 1.4 2l-1.6 6c-.3 1-1.1 1.7-2.1 1.7H7"/>
  </symbol>
  <symbol id="teacher" viewBox="0 0 24 24">
    <circle cx="9" cy="7" r="3"/>
    <path d="M4 20c0-3 2.2-5.5 5-5.5s5 2.5 5 5.5"/>
    <rect x="15" y="9" width="6" height="7" rx="1"/>
  </symbol>
  <symbol id="group" viewBox="0 0 24 24">
    <circle cx="9" cy="8" r="3"/>
    <circle cx="16" cy="9" r="2.5"/>
    <path d="M3.5 20c0-3.3 2.5-6 5.5-6s5.5 2.7 5.5 6"/>
    <path d="M14.5 14.5c2.5.3 4.5 2.5 4.5 5.5"/>
  </symbol>
  <symbol id="route" viewBox="0 0 24 24">
    <path d="M5 20c3-8 8-4 8-10s-3-6-3-6" stroke-dasharray="2.5 2.5"/>
    <circle cx="5" cy="20" r="1.3" fill="currentColor" stroke="none"/>
    <circle cx="10" cy="4" r="1.3" fill="currentColor" stroke="none"/>
  </symbol>
  <symbol id="calendar" viewBox="0 0 24 24">
    <rect x="3.5" y="5" width="17" height="15" rx="2"/>
    <path d="M3.5 9.5h17M8 3v4M16 3v4"/>
  </symbol>
  <symbol id="check" viewBox="0 0 24 24">
    <circle cx="12" cy="12" r="9"/>
    <path d="M8 12.3l2.6 2.6L16.2 9"/>
  </symbol>
  <symbol id="arrow" viewBox="0 0 24 24">
    <path d="M4 12h15M13 6l6 6-6 6"/>
  </symbol>
  <symbol id="search" viewBox="0 0 24 24">
    <circle cx="10.5" cy="10.5" r="6.5"/>
    <path d="M20 20l-4.5-4.5"/>
  </symbol>
  <symbol id="document" viewBox="0 0 24 24">
    <path d="M6 3h8l5 5v13H6z"/>
    <path d="M14 3v5h5M9 12h6M9 16h6"/>
  </symbol>
  <symbol id="school" viewBox="0 0 24 24">
    <path d="M12 4 2 9l10 5 10-5z"/>
    <path d="M6 11.5V17c0 1.5 3 3 6 3s6-1.5 6-3v-5.5"/>
  </symbol>
  <symbol id="award" viewBox="0 0 24 24">
    <circle cx="12" cy="8" r="5"/>
    <path d="M9 12.5 7 21l5-2.5L17 21l-2-8.5"/>
  </symbol>
  <symbol id="message" viewBox="0 0 24 24">
    <path d="M4 5h16v11H8l-4 4z"/>
  </symbol>
  <symbol id="building" viewBox="0 0 24 24">
    <rect x="5" y="3" width="14" height="18" rx="1"/>
    <path d="M9 7h1M14 7h1M9 11h1M14 11h1M9 15h1M14 15h1"/>
  </symbol>
  <symbol id="chart" viewBox="0 0 24 24">
    <path d="M5 20V11M11 20V5M17 20v-6"/>
    <path d="M3 20h18"/>
  </symbol>
  <symbol id="refresh" viewBox="0 0 24 24">
    <path d="M4 12a8 8 0 0 1 14-5.3M20 12a8 8 0 0 1-14 5.3"/>
    <path d="M18 3v4h-4M6 21v-4h4"/>
  </symbol>
</svg>
